<svg width="46" height="45" viewBox="0 0 46 45" fill="none" xmlns="http://www.w3.org/2000/svg">
<path fill-rule="evenodd" clip-rule="evenodd" d="M38.1641 23.6711V33.8355C38.1641 33.8355 32.4025 36.963 23.2172 36.963C14.0319 36.963 8.27026 33.8355 8.27026 33.8355V23.6711" fill="white"/>
<path d="M38.1641 23.6711V33.8355C38.1641 33.8355 32.4025 36.963 23.2172 36.963C14.0319 36.963 8.27026 33.8355 8.27026 33.8355V23.6711" stroke="#9980B7" stroke-width="2" stroke-linecap="round" stroke-linejoin="round"/>
<path fill-rule="evenodd" clip-rule="evenodd" d="M1.92237 20.2771C1.0579 19.8832 1.05959 19.2439 1.92237 18.8508L21.4347 9.96076C22.2992 9.5669 23.7025 9.56767 24.5653 9.96076L44.0776 18.8508C44.9421 19.2446 44.9404 19.884 44.0776 20.2771L24.5653 29.1671C23.7008 29.561 22.2975 29.5602 21.4347 29.1671L1.92237 20.2771Z" fill="white" stroke="#9980B7" stroke-width="2" stroke-linecap="round" stroke-linejoin="round"/>
<path d="M34.6472 25.2349V39.3086" stroke="#9980B7" stroke-width="2" stroke-linecap="round" stroke-linejoin="round"/>
<path d="M34.6472 44.0001C36.104 44.0001 37.2849 42.9499 37.2849 41.6545C37.2849 40.359 36.104 39.3088 34.6472 39.3088C33.1905 39.3088 32.0095 40.359 32.0095 41.6545C32.0095 42.9499 33.1905 44.0001 34.6472 44.0001Z" fill="white" stroke="#9980B7" stroke-width="2" stroke-linecap="round" stroke-linejoin="round"/>
<path d="M9.14941 19.7618L12.6663 18.198" stroke="#9980B7" stroke-width="2" stroke-linecap="round" stroke-linejoin="round"/>
<path d="M12.6663 21.3257L16.1832 19.762" stroke="#9980B7" stroke-width="2" stroke-linecap="round" stroke-linejoin="round"/>
</svg>
