<svg width="49" height="49" viewBox="0 0 49 49" fill="none" xmlns="http://www.w3.org/2000/svg">
<path fill-rule="evenodd" clip-rule="evenodd" d="M32.8106 17.5379C32.8106 19.8525 31.8911 22.0723 30.2545 23.709C28.6178 25.3457 26.398 26.2652 24.0834 26.2652C21.7687 26.2652 19.5489 25.3457 17.9122 23.709C16.2756 22.0723 15.3561 19.8525 15.3561 17.5379C15.3561 15.2233 16.2756 13.0034 17.9122 11.3668C19.5489 9.73009 21.7687 8.81061 24.0834 8.81061C26.398 8.81061 28.6178 9.73009 30.2545 11.3668C31.8911 13.0034 32.8106 15.2233 32.8106 17.5379ZM28.447 17.5379C28.447 18.6952 27.9873 19.8051 27.1689 20.6234C26.3506 21.4418 25.2407 21.9015 24.0834 21.9015C22.926 21.9015 21.8161 21.4418 20.9978 20.6234C20.1795 19.8051 19.7197 18.6952 19.7197 17.5379C19.7197 16.3806 20.1795 15.2707 20.9978 14.4523C21.8161 13.634 22.926 13.1742 24.0834 13.1742C25.2407 13.1742 26.3506 13.634 27.1689 14.4523C27.9873 15.2707 28.447 16.3806 28.447 17.5379Z" fill="#673F86"/>
<path fill-rule="evenodd" clip-rule="evenodd" d="M24.0834 0.083374C10.8288 0.083374 0.083374 10.8288 0.083374 24.0834C0.083374 37.3379 10.8288 48.0834 24.0834 48.0834C37.3379 48.0834 48.0834 37.3379 48.0834 24.0834C48.0834 10.8288 37.3379 0.083374 24.0834 0.083374ZM4.44701 24.0834C4.44701 28.6434 6.00265 32.8412 8.60992 36.175C10.441 33.7704 12.8032 31.8217 15.512 30.4811C18.2208 29.1406 21.2028 28.4444 24.2252 28.447C27.2085 28.4442 30.153 29.1223 32.8345 30.4298C35.516 31.7373 37.8637 33.6396 39.6986 35.9917C41.5891 33.5123 42.8619 30.6184 43.4119 27.5494C43.9618 24.4804 43.773 21.3245 42.8612 18.343C41.9493 15.3614 40.3406 12.6398 38.1681 10.4035C35.9956 8.16707 33.3217 6.48016 30.3678 5.4823C27.4139 4.48445 24.2649 4.20433 21.1813 4.66513C18.0976 5.12594 15.168 6.31441 12.6349 8.13222C10.1017 9.95003 8.03787 12.3449 6.61406 15.1187C5.19024 17.8925 4.4474 20.9655 4.44701 24.0834ZM24.0834 43.7197C19.5756 43.7265 15.204 42.1758 11.7081 39.3299C13.1152 37.3155 14.9881 35.6708 17.1674 34.5358C19.3468 33.4007 21.768 32.8089 24.2252 32.8106C26.6517 32.8087 29.0437 33.3857 31.2025 34.4938C33.3613 35.6018 35.2245 37.2089 36.6376 39.1816C33.1146 42.1198 28.6708 43.7262 24.0834 43.7197Z" fill="#673F86"/>
</svg>
