<svg width="22" height="22" viewBox="0 0 22 22" fill="none" xmlns="http://www.w3.org/2000/svg">
<path d="M13.4934 8.05754L9.56088 11.9992L8.04838 10.4867C7.9662 10.3907 7.86508 10.3128 7.75135 10.2578C7.63762 10.2028 7.51375 10.1719 7.38751 10.167C7.26127 10.1621 7.13538 10.1834 7.01775 10.2295C6.90012 10.2755 6.79328 10.3454 6.70395 10.4348C6.61462 10.5241 6.54471 10.6309 6.49863 10.7486C6.45254 10.8662 6.43127 10.9921 6.43615 11.1183C6.44102 11.2446 6.47194 11.3685 6.52696 11.4822C6.58198 11.5959 6.65992 11.697 6.75588 11.7792L8.91005 13.9425C8.9957 14.0275 9.09728 14.0947 9.20896 14.1403C9.32065 14.1859 9.44024 14.2091 9.56088 14.2084C9.80136 14.2074 10.0318 14.1119 10.2025 13.9425L14.7859 9.35921C14.8718 9.27399 14.94 9.17261 14.9865 9.0609C15.0331 8.9492 15.057 8.82939 15.057 8.70837C15.057 8.58736 15.0331 8.46755 14.9865 8.35585C14.94 8.24414 14.8718 8.14276 14.7859 8.05754C14.6141 7.88681 14.3818 7.79098 14.1396 7.79098C13.8975 7.79098 13.6651 7.88681 13.4934 8.05754ZM11 1.83337C9.18705 1.83337 7.41477 2.37099 5.90732 3.37824C4.39987 4.38548 3.22495 5.81712 2.53115 7.49211C1.83735 9.1671 1.65582 11.0102 2.00951 12.7884C2.36321 14.5665 3.23625 16.1999 4.51823 17.4819C5.80021 18.7638 7.43356 19.6369 9.21172 19.9906C10.9899 20.3443 12.833 20.1627 14.508 19.4689C16.183 18.7751 17.6146 17.6002 18.6218 16.0928C19.6291 14.5853 20.1667 12.813 20.1667 11C20.1667 9.79626 19.9296 8.60426 19.4689 7.49211C19.0083 6.37996 18.3331 5.36943 17.4819 4.51823C16.6307 3.66703 15.6201 2.99181 14.508 2.53115C13.3958 2.07048 12.2038 1.83337 11 1.83337V1.83337ZM11 18.3334C9.54965 18.3334 8.13182 17.9033 6.92586 17.0975C5.7199 16.2917 4.77997 15.1464 4.22493 13.8064C3.66989 12.4664 3.52466 10.9919 3.80762 9.56938C4.09058 8.14685 4.78901 6.84018 5.8146 5.81459C6.84018 4.78901 8.14686 4.09057 9.56938 3.80762C10.9919 3.52466 12.4664 3.66988 13.8064 4.22492C15.1464 4.77997 16.2917 5.7199 17.0975 6.92586C17.9033 8.13182 18.3334 9.54965 18.3334 11C18.3334 12.945 17.5608 14.8102 16.1855 16.1855C14.8102 17.5608 12.945 18.3334 11 18.3334V18.3334Z" fill="#00DF76"/>
</svg>
