<svg width="24" height="18" viewBox="0 0 24 18" fill="none" xmlns="http://www.w3.org/2000/svg">
<path d="M7.57782 17.9256C16.5746 17.9256 21.4946 11.0579 21.4946 5.10248C21.4946 4.90741 21.4903 4.71323 21.4808 4.51993C22.4359 3.88377 23.2659 3.08989 23.9207 2.18617C23.0443 2.54511 22.1011 2.78674 21.1118 2.8957C22.1216 2.33774 22.8969 1.45512 23.2627 0.402939C22.3176 0.919159 21.2711 1.29435 20.1567 1.49692C19.2642 0.620909 17.9935 0.072998 16.5864 0.072998C13.8853 0.072998 11.6949 2.09134 11.6949 4.57923C11.6949 4.93289 11.7378 5.27689 11.8217 5.60686C7.75652 5.41838 4.15181 3.62501 1.73933 0.898068C1.31926 1.5641 1.07705 2.33776 1.07705 3.16328C1.07705 4.72688 1.94057 6.10723 3.25369 6.91476C2.45121 6.89191 1.69737 6.68893 1.03849 6.35108C1.03777 6.36999 1.03776 6.38843 1.03776 6.40864C1.03776 8.59128 2.72377 10.4136 4.96185 10.8266C4.55084 10.9298 4.11841 10.9852 3.67209 10.9852C3.3574 10.9852 3.0508 10.9566 2.7528 10.9039C3.37551 12.6946 5.1812 13.9977 7.322 14.0341C5.64792 15.2432 3.53905 15.9633 1.24705 15.9633C0.852726 15.9633 0.463178 15.9426 0.0803223 15.9009C2.24504 17.1794 4.81545 17.9253 7.57809 17.9253" fill="white"/>
</svg>
