<svg width="48" height="48" viewBox="0 0 48 48" fill="none" xmlns="http://www.w3.org/2000/svg">
<path d="M4.8 0C2.136 0 0 2.24842 0 5.05263V30.3158C0 31.6558 0.505713 32.941 1.40589 33.8885C2.30606 34.8361 3.52696 35.3684 4.8 35.3684H24V48L31.2 40.4211L38.4 48V35.3684H43.2C44.473 35.3684 45.6939 34.8361 46.5941 33.8885C47.4943 32.941 48 31.6558 48 30.3158V5.05263C48 3.71259 47.4943 2.42743 46.5941 1.47988C45.6939 0.532329 44.473 0 43.2 0H4.8ZM24 5.05263L31.2 10.1053L38.4 5.05263V13.8947L45.6 17.6842L38.4 21.4737V30.3158L31.2 25.2632L24 30.3158V21.4737L16.8 17.6842L24 13.8947V5.05263ZM4.8 5.05263H16.8V10.1053H4.8V5.05263ZM4.8 15.1579H12V20.2105H4.8V15.1579ZM4.8 25.2632H16.8V30.3158H4.8V25.2632Z" fill="#673F86"/>
</svg>
